<svg version="1.1" xmlns="http://www.w3.org/2000/svg" xmlns:xlink="http://www.w3.org/1999/xlink" width="740" height="276"><defs/><g><g transform="translate(-118,-158) scale(1,1)"><rect fill="#ebb9a0" stroke="none" x="128" y="176" width="192" height="49"/></g><g transform="translate(-118,-158) scale(1,1)"><path fill="none" stroke="#000000" d="M 128 176 L 320 176 L 320 225 L 128 225 L 128 176 Z Z" stroke-miterlimit="10"/></g><g transform="translate(-118,-158) scale(1,1)"><g><path fill="none" stroke="none"/><text fill="#000000" stroke="none" font-family="Arial" font-size="15px" font-style="normal" font-weight="normal" text-decoration="none" x="156.49999237060547" y="200.5">我只想安心的写代码</text><text fill="#000000" stroke="none" font-family="Arial" font-size="15px" font-style="normal" font-weight="normal" text-decoration="none" x="141.49999237060547" y="215.5">别人爱怎么搞就怎么搞吧</text></g></g><g transform="translate(-118,-158) scale(1,1)"><path fill="#bdda66" stroke="none" d="M 418 184 L 494 184 Q 512 184 512 202 L 512 201 Q 512 219 494 219 L 418 219 Q 400 219 400 201 L 400 202 Q 400 184 418 184 Z"/></g><g transform="translate(-118,-158) scale(1,1)"><path fill="none" stroke="#000000" d="M 418 184 L 494 184 Q 512 184 512 202 L 512 201 Q 512 219 494 219 L 418 219 Q 400 219 400 201 L 400 202 Q 400 184 418 184 Z" stroke-miterlimit="10"/></g><g transform="translate(-118,-158) scale(1,1)"><g><path fill="none" stroke="none"/><text fill="#000000" stroke="none" font-family="Arial" font-size="16px" font-style="normal" font-weight="normal" text-decoration="none" x="426.5" y="209.5">MIT协议</text></g></g><g transform="translate(-118,-158) scale(1,1)"><path fill="none" stroke="#000000" d="M 320 200 L 400 200" stroke-miterlimit="10"/></g><g transform="translate(-118,-158) scale(1,1)"><path fill="#000000" stroke="none" d="M 389.83732514237585 204.209517756016 L 400 200 L 389.83732514237585 195.790482243984"/></g><g transform="translate(-118,-158) scale(1,1)"><path fill="none" stroke="#000000" d="M 389.83732514237585 204.209517756016 L 400 200 L 389.83732514237585 195.790482243984 L 389.83732514237585 204.209517756016" stroke-miterlimit="10"/></g><g transform="translate(-118,-158) scale(1,1)"><path fill="#ffffff" stroke="none" d="M 592 168 L 837 168 L 847 178 L 847 231 L 592 231 L 592 168"/></g><g transform="translate(-118,-158) scale(1,1)"><path fill="none" stroke="#000000" d="M 592 168 L 837 168 L 847 178 L 847 231 L 592 231 L 592 168 L 592 168" stroke-miterlimit="10"/></g><g transform="translate(-118,-158) scale(1,1)"><path fill="none" stroke="#000000" d="M 837 168 L 837 178 L 847 178 L 837 168" stroke-miterlimit="10"/></g><g transform="translate(-118,-158) scale(1,1)"><g><path fill="none" stroke="none"/><text fill="#0082d7" stroke="none" font-family="Arial" font-size="14px" font-style="normal" font-weight="normal" text-decoration="none" x="597" y="187">1.允许别人以任何方式使用。</text><text fill="#0082d7" stroke="none" font-family="Arial" font-size="14px" font-style="normal" font-weight="normal" text-decoration="none" x="597" y="201">2.署名作者。</text><text fill="#0082d7" stroke="none" font-family="Arial" font-size="14px" font-style="normal" font-weight="normal" text-decoration="none" x="597" y="215">3.原作者不承担代码使用后的风险。</text></g></g><g transform="translate(-118,-158) scale(1,1)"><path fill="none" stroke="#000000" d="M 513 201 L 591 200" stroke-miterlimit="10" stroke-dasharray="3"/></g><g transform="translate(-118,-158) scale(1,1)"><rect fill="#ebb9a9" stroke="none" x="128" y="272" width="192" height="49"/></g><g transform="translate(-118,-158) scale(1,1)"><path fill="none" stroke="#000000" d="M 128 272 L 320 272 L 320 321 L 128 321 L 128 272 Z Z" stroke-miterlimit="10"/></g><g transform="translate(-118,-158) scale(1,1)"><g><path fill="none" stroke="none"/><text fill="#000000" stroke="none" font-family="Arial" font-size="15px" font-style="normal" font-weight="normal" text-decoration="none" x="178.99999618530273" y="296.5">我想保有专利</text><text fill="#000000" stroke="none" font-family="Arial" font-size="15px" font-style="normal" font-weight="normal" text-decoration="none" x="163.99999618530273" y="311.5">但你们可以随便用</text></g></g><g transform="translate(-118,-158) scale(1,1)"><path fill="#bdda66" stroke="none" d="M 418 280 L 494 280 Q 512 280 512 298 L 512 297 Q 512 315 494 315 L 418 315 Q 400 315 400 297 L 400 298 Q 400 280 418 280 Z"/></g><g transform="translate(-118,-158) scale(1,1)"><path fill="none" stroke="#000000" d="M 418 280 L 494 280 Q 512 280 512 298 L 512 297 Q 512 315 494 315 L 418 315 Q 400 315 400 297 L 400 298 Q 400 280 418 280 Z" stroke-miterlimit="10"/></g><g transform="translate(-118,-158) scale(1,1)"><g><path fill="none" stroke="none"/><text fill="#000000" stroke="none" font-family="Arial" font-size="16px" font-style="normal" font-weight="normal" text-decoration="none" x="412.5" y="305.5">Apache协议</text></g></g><g transform="translate(-118,-158) scale(1,1)"><path fill="none" stroke="#000000" d="M 320 296 L 400 296" stroke-miterlimit="10"/></g><g transform="translate(-118,-158) scale(1,1)"><path fill="#000000" stroke="none" d="M 389.83732514237585 300.209517756016 L 400 296 L 389.83732514237585 291.790482243984"/></g><g transform="translate(-118,-158) scale(1,1)"><path fill="none" stroke="#000000" d="M 389.83732514237585 300.209517756016 L 400 296 L 389.83732514237585 291.790482243984 L 389.83732514237585 300.209517756016" stroke-miterlimit="10"/></g><g transform="translate(-118,-158) scale(1,1)"><path fill="#ffffff" stroke="none" d="M 592 256 L 836 256 L 846 266 L 846 343 L 592 343 L 592 256"/></g><g transform="translate(-118,-158) scale(1,1)"><path fill="none" stroke="#000000" d="M 592 256 L 836 256 L 846 266 L 846 343 L 592 343 L 592 256 L 592 256" stroke-miterlimit="10"/></g><g transform="translate(-118,-158) scale(1,1)"><path fill="none" stroke="#000000" d="M 836 256 L 836 266 L 846 266 L 836 256" stroke-miterlimit="10"/></g><g transform="translate(-118,-158) scale(1,1)"><g><path fill="none" stroke="none"/><text fill="#0082d7" stroke="none" font-family="Arial" font-size="14px" font-style="normal" font-weight="normal" text-decoration="none" x="597" y="275">1.授权使用者免费使用个人专利。</text><text fill="#0082d7" stroke="none" font-family="Arial" font-size="14px" font-style="normal" font-weight="normal" text-decoration="none" x="597" y="289">2.使用者必须放置协议说明。</text><text fill="#0082d7" stroke="none" font-family="Arial" font-size="14px" font-style="normal" font-weight="normal" text-decoration="none" x="597" y="303">3.使用者需要对修改部分声明。</text><text fill="#0082d7" stroke="none" font-family="Arial" font-size="14px" font-style="normal" font-weight="normal" text-decoration="none" x="597" y="317">4.禁止使用作者的名号进行商业广告。</text><text fill="#0082d7" stroke="none" font-family="Arial" font-size="14px" font-style="normal" font-weight="normal" text-decoration="none" x="597" y="331">5.原作者不承担代码使用后风险。</text></g></g><g transform="translate(-118,-158) scale(1,1)"><path fill="none" stroke="#000000" d="M 513 298 L 591 299" stroke-miterlimit="10" stroke-dasharray="3"/></g><g transform="translate(-118,-158) scale(1,1)"><rect fill="#ebb9a0" stroke="none" x="128" y="368" width="192" height="49"/></g><g transform="translate(-118,-158) scale(1,1)"><path fill="none" stroke="#000000" d="M 128 368 L 320 368 L 320 417 L 128 417 L 128 368 Z Z" stroke-miterlimit="10"/></g><g transform="translate(-118,-158) scale(1,1)"><g><path fill="none" stroke="none"/><text fill="#000000" stroke="none" font-family="Arial" font-size="15px" font-style="normal" font-weight="normal" text-decoration="none" x="163.99999618530273" y="392.5">我希望我的代码能</text><text fill="#000000" stroke="none" font-family="Arial" font-size="15px" font-style="normal" font-weight="normal" text-decoration="none" x="156.49999237060547" y="407.5">生根发芽，遍地开花</text></g></g><g transform="translate(-118,-158) scale(1,1)"><path fill="#bdda66" stroke="none" d="M 418 376 L 494 376 Q 512 376 512 394 L 512 393 Q 512 411 494 411 L 418 411 Q 400 411 400 393 L 400 394 Q 400 376 418 376 Z"/></g><g transform="translate(-118,-158) scale(1,1)"><path fill="none" stroke="#000000" d="M 418 376 L 494 376 Q 512 376 512 394 L 512 393 Q 512 411 494 411 L 418 411 Q 400 411 400 393 L 400 394 Q 400 376 418 376 Z" stroke-miterlimit="10"/></g><g transform="translate(-118,-158) scale(1,1)"><g><path fill="none" stroke="none"/><text fill="#000000" stroke="none" font-family="Arial" font-size="16px" font-style="normal" font-weight="normal" text-decoration="none" x="424" y="401.5">GPL协议</text></g></g><g transform="translate(-118,-158) scale(1,1)"><path fill="none" stroke="#000000" d="M 320 392 L 400 392" stroke-miterlimit="10"/></g><g transform="translate(-118,-158) scale(1,1)"><path fill="#000000" stroke="none" d="M 389.83732514237585 396.209517756016 L 400 392 L 389.83732514237585 387.790482243984"/></g><g transform="translate(-118,-158) scale(1,1)"><path fill="none" stroke="#000000" d="M 389.83732514237585 396.209517756016 L 400 392 L 389.83732514237585 387.790482243984 L 389.83732514237585 396.209517756016" stroke-miterlimit="10"/></g><g transform="translate(-118,-158) scale(1,1)"><path fill="#ffffff" stroke="none" d="M 592 376 L 837 376 L 847 386 L 847 423 L 592 423 L 592 376"/></g><g transform="translate(-118,-158) scale(1,1)"><path fill="none" stroke="#000000" d="M 592 376 L 837 376 L 847 386 L 847 423 L 592 423 L 592 376 L 592 376" stroke-miterlimit="10"/></g><g transform="translate(-118,-158) scale(1,1)"><path fill="none" stroke="#000000" d="M 837 376 L 837 386 L 847 386 L 837 376" stroke-miterlimit="10"/></g><g transform="translate(-118,-158) scale(1,1)"><g><path fill="none" stroke="none"/><text fill="#0082d7" stroke="none" font-family="Arial" font-size="14px" font-style="normal" font-weight="normal" text-decoration="none" x="597" y="395">1.必须遵循相同的协议进行开源。</text><text fill="#0082d7" stroke="none" font-family="Arial" font-size="14px" font-style="normal" font-weight="normal" text-decoration="none" x="597" y="409">2.原作者不承担代码使用后风险。</text></g></g><g transform="translate(-118,-158) scale(1,1)"><path fill="none" stroke="#000000" d="M 513 395 L 591 397" stroke-miterlimit="10" stroke-dasharray="3"/></g></g></svg>